<svg xmlns="http://www.w3.org/2000/svg" viewBox="0 0 1000 620" role="img" aria-labelledby="title desc">
  <title id="title">Animal Sense social mockups</title>
  <desc id="desc">Three social media card drafts with animal line details.</desc>
  <rect width="1000" height="620" fill="#E9DDCF"/>
  <g font-family="Arial, Helvetica, sans-serif">
    <rect x="70" y="72" width="260" height="464" rx="28" fill="#263C35"/>
    <path d="M105 250c35-70 87-95 157-74 17 5 32 14 45 25" fill="none" stroke="#D8CBB7" stroke-width="6" stroke-linecap="round"/>
    <path d="M114 289c62 35 123 33 184-7" fill="none" stroke="#D8CBB7" stroke-width="5" stroke-linecap="round"/>
    <text x="102" y="390" font-size="14" font-weight="700" fill="#B8734B" letter-spacing="2">ANIMAL SENSE</text>
    <text x="102" y="426" font-size="31" font-family="Georgia, serif" fill="#F7F1E8">Osserva</text>
    <text x="102" y="463" font-size="31" font-family="Georgia, serif" fill="#F7F1E8">prima di</text>
    <text x="102" y="500" font-size="31" font-family="Georgia, serif" fill="#F7F1E8">interpretare.</text>

    <rect x="370" y="72" width="260" height="464" rx="28" fill="#F7F1E8"/>
    <path d="M421 217c29-42 68-62 118-60 34 1 62 14 84 38" fill="none" stroke="#263C35" stroke-width="6" stroke-linecap="round"/>
    <ellipse cx="525" cy="246" rx="30" ry="22" fill="none" stroke="#B8734B" stroke-width="5"/>
    <circle cx="525" cy="246" r="8" fill="#B8734B"/>
    <path d="M418 321c66-35 135-39 207-12" fill="none" stroke="#B8734B" stroke-width="3" stroke-dasharray="8 9"/>
    <text x="405" y="390" font-size="14" font-weight="700" fill="#B8734B" letter-spacing="2">POST CAROUSEL</text>
    <text x="405" y="426" font-size="30" font-family="Georgia, serif" fill="#263C35">Il corpo</text>
    <text x="405" y="462" font-size="30" font-family="Georgia, serif" fill="#263C35">parla prima</text>
    <text x="405" y="498" font-size="30" font-family="Georgia, serif" fill="#263C35">del gesto.</text>

    <rect x="670" y="72" width="260" height="464" rx="28" fill="#B8734B"/>
    <path d="M715 238c38-38 82-52 134-43" fill="none" stroke="#F7F1E8" stroke-width="6" stroke-linecap="round"/>
    <path d="M746 187c-13-28-8-55 17-80 19 28 20 55 2 82" fill="none" stroke="#F7F1E8" stroke-width="5" stroke-linecap="round"/>
    <path d="M832 196c20-22 46-32 78-29-11 30-33 47-67 49" fill="none" stroke="#F7F1E8" stroke-width="5" stroke-linecap="round"/>
    <circle cx="732" cy="318" r="9" fill="#263C35"/>
    <circle cx="875" cy="278" r="9" fill="#263C35"/>
    <path d="M739 315c42-32 86-46 132-41" fill="none" stroke="#263C35" stroke-width="3" stroke-dasharray="8 9"/>
    <text x="705" y="390" font-size="14" font-weight="700" fill="#263C35" letter-spacing="2">QUIZ GRATUITO</text>
    <text x="705" y="426" font-size="31" font-family="Georgia, serif" fill="#F7F1E8">Che presenza</text>
    <text x="705" y="463" font-size="31" font-family="Georgia, serif" fill="#F7F1E8">porti nella</text>
    <text x="705" y="500" font-size="31" font-family="Georgia, serif" fill="#F7F1E8">relazione?</text>
  </g>
</svg>
