<svg xmlns="http://www.w3.org/2000/svg" viewBox="0 0 420 420" role="img" aria-labelledby="title desc">
  <title id="title">Animal Sense logo concept</title>
  <desc id="desc">A refined line mark combining an animal profile, eye and relational field.</desc>
  <rect width="420" height="420" rx="42" fill="#F7F1E8"/>
  <circle cx="210" cy="210" r="138" fill="none" stroke="#D8CBB7" stroke-width="3"/>
  <path d="M95 228c29-69 81-104 151-103 39 1 71 16 96 45" fill="none" stroke="#243D34" stroke-width="9" stroke-linecap="round"/>
  <path d="M127 250c38 30 83 43 135 34 38-7 69-25 93-54" fill="none" stroke="#243D34" stroke-width="7" stroke-linecap="round"/>
  <path d="M147 180c18-31 46-47 84-49" fill="none" stroke="#B8734B" stroke-width="7" stroke-linecap="round"/>
  <path d="M256 133c-1-27 7-47 24-60 10 27 8 49-7 67" fill="#F7F1E8" stroke="#243D34" stroke-width="7" stroke-linejoin="round"/>
  <path d="M192 146c-15-19-19-39-12-61 22 18 31 38 27 61" fill="#F7F1E8" stroke="#243D34" stroke-width="7" stroke-linejoin="round"/>
  <ellipse cx="235" cy="201" rx="29" ry="22" fill="none" stroke="#243D34" stroke-width="6"/>
  <circle cx="235" cy="201" r="8" fill="#243D34"/>
  <circle cx="143" cy="284" r="9" fill="#B8734B"/>
  <circle cx="318" cy="167" r="9" fill="#B8734B"/>
  <path d="M153 279c45-38 98-63 159-74" fill="none" stroke="#B8734B" stroke-width="3" stroke-dasharray="8 10" stroke-linecap="round"/>
</svg>
